<svg xmlns="http://www.w3.org/2000/svg" width="172" height="39" fill="none"><path fill="#2C2830" fill-rule="evenodd" d="M57.83 22.508c-.654-.287-1.3-.61-1.935-.97L54 24.421c.665.38 1.389.73 2.17 1.048.781.318 1.604.59 2.467.819a21.58 21.58 0 0 0 2.709.527c.942.123 1.906.185 2.893.185 1.496 0 2.853-.14 4.071-.42 1.219-.28 2.26-.692 3.124-1.234.863-.542 1.529-1.208 1.996-1.997.467-.788.7-1.687.7-2.697 0-.755-.137-1.437-.414-2.046a4.19 4.19 0 0 0-1.222-1.56c-.539-.43-1.206-.76-2.002-.992-.797-.232-1.71-.347-2.743-.347-.545 0-1.108.028-1.687.084-.58.056-1.148.117-1.705.185l-.816.096-.776.089c-.505.056-.952.084-1.34.084-.965 0-1.683-.167-2.154-.5-.471-.332-.706-.76-.706-1.283 0-.27.072-.54.218-.813.146-.273.406-.52.78-.74.373-.221.876-.402 1.508-.545.632-.142 1.437-.213 2.417-.213.688 0 1.362.04 2.024.118.662.079 1.303.185 1.924.32.62.134 1.214.293 1.783.476.568.184 1.099.384 1.592.6l1.56-2.87a17.965 17.965 0 0 0-1.941-.735c-.695-.22-1.419-.41-2.17-.567a23.939 23.939 0 0 0-2.316-.364A21.925 21.925 0 0 0 63.578 9c-1.085 0-2.05.077-2.9.23-.848.153-1.596.364-2.242.634a6.683 6.683 0 0 0-1.655.958c-.456.37-.828.77-1.116 1.2-.287.43-.497.88-.628 1.352-.13.47-.196.946-.196 1.424 0 .808.165 1.514.494 2.12a4.5 4.5 0 0 0 1.329 1.514 5.982 5.982 0 0 0 1.917.908 8.347 8.347 0 0 0 2.26.303c.471 0 .974-.032 1.508-.095a97.12 97.12 0 0 0 1.627-.208l.82-.108.811-.1c.539-.063 1.05-.095 1.537-.095 1.106 0 1.925.185 2.456.556.53.37.796.872.796 1.508 0 .396-.106.762-.32 1.099-.212.337-.553.626-1.02.87-.467.242-1.07.433-1.811.571-.74.138-1.638.208-2.692.208-.874 0-1.699-.053-2.473-.157a16.126 16.126 0 0 1-2.215-.455 15.458 15.458 0 0 1-2.035-.729ZM24 9.224h3.578v17.53H24V9.223Zm8.086 0h3.555l10.924 5.72v-5.72h3.555v17.53h-3.555v-8.042L35.64 13.026v13.727h-3.555V9.224Zm45.297 0h3.555v9.656c0 .793.109 1.498.326 2.114.216.617.54 1.139.97 1.565.43.426.962.75 1.598.97.635.22 1.376.33 2.22.33.838 0 1.576-.11 2.215-.33.64-.22 1.174-.544 1.604-.97.43-.426.753-.948.97-1.565.217-.616.325-1.321.325-2.114V9.224h3.556v10.082c0 1.152-.195 2.199-.584 3.14a6.667 6.667 0 0 1-1.693 2.423c-.74.673-1.647 1.193-2.72 1.559-1.073.366-2.297.55-3.673.55-1.375 0-2.6-.184-3.673-.55-1.073-.366-1.979-.886-2.72-1.559a6.666 6.666 0 0 1-1.693-2.422c-.388-.942-.583-1.99-.583-3.14V9.223Zm30.583 0h-8.915v17.53h3.555v-4.991l5.484.01 3.297 4.98h4.351l-3.813-5.607a6.68 6.68 0 0 0 1.739-.96 5.551 5.551 0 0 0 1.228-1.317 5.518 5.518 0 0 0 .723-1.62 7.154 7.154 0 0 0 .235-1.856c0-.965-.158-1.829-.476-2.591a4.905 4.905 0 0 0-1.453-1.94c-.65-.531-1.469-.937-2.456-1.217-.986-.28-2.153-.42-3.499-.42Zm.09 9.466c.673 0 1.262-.079 1.766-.236.505-.157.928-.377 1.268-.662.34-.284.594-.63.762-1.037.169-.407.253-.861.253-1.362 0-.98-.337-1.737-1.01-2.272-.673-.534-1.686-.801-3.039-.801h-5.45v6.37h5.45Zm26.927-9.466h-14.927v17.53h15.163v-3.107h-11.608v-4.879h10.071v-2.927h-10.071v-3.499h11.372V9.224Z" clip-rule="evenodd"/></svg>